<?xml version="1.0" standalone="no"?><!DOCTYPE svg PUBLIC "-//W3C//DTD SVG 1.1//EN" "http://www.w3.org/Graphics/SVG/1.1/DTD/svg11.dtd"><svg t="1606373870339" class="icon" viewBox="0 0 1024 1024" version="1.1" xmlns="http://www.w3.org/2000/svg" p-id="2257" xmlns:xlink="http://www.w3.org/1999/xlink" width="200" height="200"><defs><style type="text/css">@font-face { font-family: element-icons; src: url("chrome-extension://moombeodfomdpjnpocobemoiaemednkg/fonts/element-icons.woff") format("woff"), url("chrome-extension://moombeodfomdpjnpocobemoiaemednkg/fonts/element-icons.ttf ") format("truetype"); }
</style></defs><path d="M491.5 250.9H337.9c45.1-30.7 98.3-47.1 153.6-51.2v51.2zM491.5 369.7H227.3c16.4-28.7 36.9-55.3 59.4-79.9h204.8v79.9zM491.5 490.5h-299c2-26.6 8.2-53.3 16.4-79.9h282.6v79.9zM686.1 250.9H532.5v-51.2c55.3 4.1 108.5 20.5 153.6 51.2zM311.3 773.1h399.4c-53.3 45.1-122.9 69.6-198.7 69.6s-145.4-26.6-200.7-69.6zM796.7 369.7H532.5v-79.9h204.8c24.6 22.5 43 49.1 59.4 79.9zM219.1 652.3h587.8c-12.3 30.7-30.7 57.3-51.2 79.9H270.3c-20.4-24.6-38.9-51.2-51.2-79.9zM833.5 490.5h-301v-79.9h282.6c8.2 24.6 16.4 51.2 18.4 79.9zM190.5 531.5h645.1c0 26.6-6.1 55.3-12.3 79.9H202.8c-8.2-24.6-12.3-51.3-12.3-79.9z" p-id="2258" fill="#f4ea2a"></path><path d="M768 68.6H256L0 513l256 442.4h512L1024 513 768 68.6z m77.1 590.9c-17.7 42.5-43.3 80.9-75 113.7-65.6 67.5-157.8 110.5-260.1 110.5-51.2 0-99.8-10.8-143.9-29.9-44-19.2-83.5-46.9-116.2-80.6-63.5-65.5-102.4-153.6-102.4-251.9 0-200.7 163.8-364.5 364.5-364.5s364.5 163.8 360.5 364.5c0 49.1-9.8 95.7-27.4 138.2z" p-id="2259" fill="#f4ea2a"></path></svg>