<?xml version="1.0" standalone="no"?>
<!DOCTYPE svg PUBLIC "-//W3C//DTD SVG 1.1//EN" "http://www.w3.org/Graphics/SVG/1.1/DTD/svg11.dtd" >
<!--
2013-9-30: Created.
-->
<svg>
<metadata>
Created by iconfont
</metadata>
<defs>

<font id="iconfont" horiz-adv-x="1024" >
  <font-face
    font-family="iconfont"
    font-weight="500"
    font-stretch="normal"
    units-per-em="1024"
    ascent="896"
    descent="-128"
  />
    <missing-glyph />
    
    <glyph glyph-name="lingdang-xianxing" unicode="&#59584;" d="M512 704l52.05333333-12.8c108.37333333-26.45333333 187.73333333-125.44 187.73333334-235.52v-271.36l19.62666666-19.62666667 26.45333334-27.30666666h-571.73333334l26.45333334 27.30666666 19.62666666 19.62666667V455.68c0 110.08 78.50666667 209.92 187.73333334 235.52l52.05333333 12.8M512 861.86666667c-39.25333333 0-68.26666667-32.42666667-68.26666667-72.53333334v-32.42666666C308.05333333 725.33333333 203.94666667 602.4533333300001 203.94666667 455.68v-244.05333333L110.93333333 116.05333332999999v-47.78666666h802.13333334v47.78666666l-93.01333334 95.57333334V455.68c0 146.77333333-104.10666667 269.65333333-239.78666666 302.08v30.72c0 34.13333333-18.77333333 64.85333333-51.2 71.68-5.97333333 1.70666667-11.94666667 1.70666667-17.06666667 1.70666667z m93.86666667-861.86666667H418.13333333c0-52.90666667 40.96-93.86666667 93.86666667-93.86666667s93.86666667 40.96 93.86666667 93.86666667z"  horiz-adv-x="1024" />

    
    <glyph glyph-name="duoren1" unicode="&#58982;" d="M741.54666667 34.66666667000004c0 2.77333333-0.42666667 5.65333333-1.06666667 8.53333333-7.46666667 60.90666667-31.14666667 119.14666667-68.26666667 168.53333333-34.98666667 46.50666667-81.28 84.26666667-134.29333333 109.54666667 63.46666667 48.21333333 100.90666667 122.88 100.58666667 201.92 2.56 89.49333333-44.90666667 173.33333333-123.84 218.77333333-78.82666667 45.44-176.64 45.44-255.46666667 0-78.82666667-45.54666667-126.18666667-129.38666667-123.73333333-218.88-0.32-79.14666667 37.12-153.81333333 100.8-201.92-52.48-24.96-98.45333333-62.18666667-133.33333334-108.05333333C66.13333333 164.37333333000004 42.24 106.98666666999998 34.13333333 46.82666667000001c-1.28-3.94666667-1.92-8.10666667-2.02666666-12.48v-0.32l0.32-4.37333334 0.10666666-0.10666666c0.10666667-14.18666667 7.78666667-27.30666667 20.26666667-34.66666667 6.50666667-3.73333333 13.76-5.65333333 21.01333333-5.65333333 7.25333333 0 14.50666667 1.92 20.90666667 5.65333333 11.2 6.50666667 18.45333333 17.6 20.05333333 30.08h0.21333334l0.64 5.65333333C130.13333333 161.27999999999997 238.08 262.29333333 372.26666667 271.25333333000003c4.90666667-0.32 9.81333333-0.53333333 14.72-0.53333333 5.01333333 0 9.92 0.21333333 14.93333333 0.53333333 134.18666667-8.85333333 242.02666667-109.97333333 256.64-240.53333333l0.64-5.65333333h0.42666667c1.49333333-12.37333333 8.85333333-23.46666667 20.05333333-30.08 13.01333333-7.57333333 29.12-7.57333333 42.02666667 0 11.2 6.50666667 18.45333333 17.6 20.05333333 30.08h0.32v6.4c0 0.74666667-0.10666667 1.38666667-0.21333333 1.81333333l-0.32 1.38666667zM402.88 354.45333332999996c-4.8 0.21333333-10.34666667 0.32-15.68 0.32-5.12 0-10.34666667-0.10666667-15.78666667-0.32-88.21333333 9.38666667-154.02666667 81.70666667-153.06666666 168.42666667 2.45333333 88.74666667 75.52 159.14666667 166.50666666 160.32h2.24c89.92 0 163.62666667-68.16 168.32-156.16 4.8-88.42666667-62.18666667-164.16-152.53333333-172.58666667zM988.58666667 33.17333332999999l-0.21333334 1.49333334c0 2.77333333-0.42666667 5.65333333-1.06666666 8.53333333-7.46666667 60.90666667-31.14666667 119.14666667-68.26666667 168.53333333-34.98666667 46.50666667-81.28 84.26666667-134.29333333 109.54666667 63.46666667 48.21333333 100.90666667 122.88 100.58666666 201.92 2.56 89.49333333-44.8 173.33333333-123.73333333 218.77333333-31.89333333 18.45333333-66.98666667 29.33333333-102.72 32.85333334v-0.21333334c-1.28 0.10666667-2.66666667 0.21333333-3.94666667 0.21333334-25.28 0-45.86666667-20.58666667-45.86666666-46.08 0-22.18666667 15.57333333-40.64 36.37333333-45.01333334l-0.10666667-0.85333333c84.69333333-5.44 152.53333333-71.46666667 157.01333334-155.73333333 3.94666667-73.92-42.24-138.98666667-110.18666667-163.2l0.10666667-0.21333334c-18.45333333-8.32-31.25333333-26.98666667-31.25333334-48.64 0-24.42666667 16.32-45.01333333 38.61333334-51.30666666l-0.21333334-0.53333334c109.76-27.62666667 193.17333333-118.93333333 205.86666667-232.42666666l0.64-5.65333334h0.42666667c1.49333333-12.37333333 8.85333333-23.46666667 20.05333333-30.08 13.01333333-7.57333333 29.12-7.57333333 42.02666667 0 11.2 6.50666667 18.45333333 17.6 20.05333333 30.08h0.32v6.4c0 0.64-0.10666667 1.28-0.21333333 1.6z"  horiz-adv-x="1024" />

    
    <glyph glyph-name="shouji" unicode="&#58903;" d="M745.90908969 861.27544688L258.98930094 861.27544688c-30.37972219 0-55.24894125-24.43175531-55.24894125-54.86999813l0-845.90839406c0-30.14660062 24.57853594-54.57835594 55.24894125-54.57835594l486.91978875 0c30.32312063 0 54.92947781 24.43175531 54.92947781 54.57835594L800.8385675 806.69709094C800.8385675 836.84369156 776.23221031 861.27544688 745.90908969 861.27544688M456.57405875 806.69709094l92.013135 0c6.35665031 0 11.54577187-5.19008156 11.54577187-11.48725125 0-6.32691-5.18912156-11.48725125-11.54577187-11.48725125l-92.013135 0c-6.35569125 0-11.57359313 5.16034125-11.57359313 11.48725125C444.99950656 801.5070103099999 450.2183675 806.69709094 456.57405875 806.69709094M502.28898406-55.30631061999998c-27.78468188 0-50.61336375 22.44973875-50.61336375 50.32268156 0 27.52182 22.53703969 50.26320188 50.61336375 50.26320187 28.04754375 0 50.61336375-22.39121906 50.61336375-50.26320187C552.90234781-32.85657093999998 530.33748687-55.30631061999998 502.28898406-55.30631061999998M750.45928438 111.05353780999997c0-15.21912188-12.36217875-27.28869844-27.40669782-27.28869844l-441.20486343 0c-15.33520312 0-27.49303969 12.36217875-27.49303969 27.28869844L254.35468344 710.71800562c0 15.21816187 12.44947969 27.31747875 27.49303969 27.31747876l440.85565968 0c15.39468281 0 27.52278-12.36121875 27.52278-27.31747875l0-599.66446782L750.45928438 111.05353780999997zM750.45928438 111.05353780999997"  horiz-adv-x="1024" />

    
    <glyph glyph-name="yanzhengma" unicode="&#59072;" d="M948.61539555 655.61031111a67.35644445 67.35644445 0 0 1-53.15697777 59.09162667A1255.37848889 1255.37848889 0 0 0 723.53564445 754.2784a638.61191111 638.61191111 0 0 0-153.60910223 89.78432 70.26915555 70.26915555 0 0 1-82.10204444 0 402.90076445 402.90076445 0 0 0-154.77418667-89.20177778 577.15370667 577.15370667 0 0 0-167.18961778-41.32408889 62.62328889 62.62328889 0 0 1-52.57443555-59.09162666S111.50222222 506.15182222 111.50222222 375.62595554999996C111.50222222 139.33226666999997 390.32149333-89.31555555 529.76753778-89.31555555c139.40963555 0 375.73973333 161.29137778 413.53216 461.37344 9.46631111 177.23847111 2.91271111 282.96988445 2.91271111 282.96988444l2.40298666 0.61895111z m-151.82506666-182.51776l-291.27111111-274.70506666c-13.1072-12.48824889-33.13208889-14.45432889-48.42382223-4.73315556l-7.64586666 6.51719111-160.70883556 167.15320889a40.12259555 40.12259555 0 0 0 59.05521778 54.35847111l132.34631111-138.82709333 262.28963556 248.12657778a40.12259555 40.12259555 0 1 0 54.35847111-59.09162667v1.20149333z"  horiz-adv-x="1024" />

    
    <glyph glyph-name="youxiang" unicode="&#59083;" d="M1007.00588427 834H259.31357685A199.45384629 199.45384629 0 0 1 62.00588428 633.05769258V134.76923057A199.45384629 199.45384629 0 0 1 259.31357685-66h747.69230742a199.41923057 199.41923057 0 0 1 197.30769258 200.76923057V633.05769258A199.41923057 199.41923057 0 0 1 1007.00588427 834z m15.71538516-256.74230742L771.30973057 314.76923057a189.06923057 189.06923057 0 0 0-274.53461485 0L243.73665372 578.78076943a45.83076943 45.83076943 0 0 0 0.76153886 64.10769171 43.92692315 43.92692315 0 0 0 63-0.76153799l253.17692315-264.01153887a100.8 100.8 0 0 1 146.73461484-1e-8l251.37692315 262.59230831a43.92692315 43.92692315 0 0 0 62.99999999 0.79615371 45.65769258 45.65769258 0 0 0 0.90000001-64.00384629z m0 0"  horiz-adv-x="1299" />

    
    <glyph glyph-name="view" unicode="&#59060;" d="M512 480a96 96 0 1 1 0-192 96 96 0 0 1 0 192z m511.952-102.064c-0.016 0.448-0.064 0.864-0.096 1.296a8.16 8.16 0 0 1-0.08 0.656c0 0.32-0.064 0.624-0.128 0.928-0.032 0.368-0.064 0.736-0.128 1.088-0.032 0.048-0.032 0.096-0.032 0.144a39.488 39.488 0 0 1-10.704 21.536c-32.672 39.616-71.536 74.88-111.04 107.072-85.088 69.392-182.432 127.424-289.856 150.8-62.112 13.504-124.576 14.064-187.008 2.64-56.784-10.384-111.504-32-162.72-58.784-80.176-41.92-153.392-99.696-217.184-164.48-11.808-11.984-23.552-24.224-34.288-37.248-14.288-17.328-14.288-37.872 0-55.216 32.672-39.616 71.52-74.848 111.04-107.056 85.12-69.392 182.448-127.408 289.888-150.784 62.096-13.504 124.608-14.096 187.008-2.656 56.768 10.4 111.488 32 162.736 58.768 80.176 41.936 153.376 99.696 217.184 164.48 11.792 12 23.536 24.224 34.288 37.248 5.712 5.872 9.456 13.44 10.704 21.568l0.032 0.128a12.592 12.592 0 0 1 0.128 1.088c0.064 0.304 0.096 0.624 0.128 0.928l0.08 0.656 0.096 1.28c0.032 0.656 0.048 1.296 0.048 1.952l-0.096 1.968zM512 192c-106.032 0-192 85.952-192 192s85.952 192 192 192 192-85.968 192-192c0-106.048-85.968-192-192-192z"  horiz-adv-x="1024" />

    
    <glyph glyph-name="view-off" unicode="&#59031;" d="M989.866667 445.909333a894.037333 894.037333 0 0 1-183.466667 153.6l170.666667 170.453334a42.666667 42.666667 0 0 1 0 60.330666c-30.549333 30.549333-67.370667-12.074667-68.48-13.184L82.218667-8.874667a46.933333 46.933333 0 0 1 2.048-53.290666 42.666667 42.666667 0 0 1 60.330666 0l176.896 176.896a480.426667 480.426667 0 0 1 183.893334-40.064h12.8c181.589333 0 362.197333 127.317333 471.509333 247.466666a92.714667 92.714667 0 0 1 0.170667 123.776z m-293.845334-116.096a195.541333 195.541333 0 0 0-128-129.194666 183.466667 183.466667 0 0 0-132.266666 8.064 10.837333 10.837333 0 0 0-2.901334 17.408l237.226667 237.184a10.794667 10.794667 0 0 0 17.365333-2.858667 183.466667 183.466667 0 0 0 8.576-130.602667zM324.906667 324.266667a10.410667 10.410667 0 0 1 2.602666 10.24A183.850667 183.850667 0 0 0 320 384 192 192 0 0 0 512 576a182.442667 182.442667 0 0 0 49.493333-7.381333 10.410667 10.410667 0 0 1 10.24 2.645333l82.816 82.858667a10.837333 10.837333 0 0 1-4.266666 17.92A443.093333 443.093333 0 0 1 512 693.333333C328.533333 695.765333 145.066667 567.466667 34.688 445.909333a91.733333 91.733333 0 0 1-0.298667-123.733333 906.368 906.368 0 0 1 146.645334-129.28 10.922667 10.922667 0 0 1 13.909333 1.237333z"  horiz-adv-x="1024" />

    
    <glyph glyph-name="suo" unicode="&#58892;" d="M521.8 728.2c84.7 0 154.5-64.1 165.1-147.1h99.8C774.9 721.6 659.9 832 519.6 832s-255.2-110.4-267-250.9h104.2c10.4 83 80.3 147.1 165 147.1zM767.7 520H256.3c-61.8 0-111.9-50.1-111.9-111.9V48c0-61.8 50.1-111.9 111.9-111.9h511.5c61.9 0 111.9 50.1 111.9 111.9V408c0 61.8-50.2 112-112 112zM559.6 218.4v-81.3c0-27.5-22.3-49.7-49.7-49.7-27.5 0-49.7 22.3-49.7 49.7v80.1c-13.4 12.9-21.8 30.9-21.8 51 0 39.1 31.8 70.9 70.9 70.9s70.9-31.8 70.9-70.9c-0.2-19.4-8-37-20.6-49.8z"  horiz-adv-x="1024" />

    
    <glyph glyph-name="ren1" unicode="&#58941;" d="M711.104 338.965333c115.2 0 208.597333-93.397333 208.597333-208.597333V-42.666667c0-19.626667-15.914667-35.562667-35.562666-35.562666H120.896C101.269333-78.229333 85.333333-62.293333 85.333333-42.666667v173.034667c0 115.2 93.397333 208.597333 208.597334 208.597333h417.173333zM505.450667 832c125.653333 0 227.541333-101.888 227.541333-227.562667 0-125.653333-101.888-227.541333-227.562667-227.541333-125.653333 0-227.541333 101.866667-227.541333 227.541333S379.733333 832 505.429333 832z"  horiz-adv-x="1024" />

    
    <glyph glyph-name="ren" unicode="&#58926;" d="M895.51939906-64.79999999999995v33A384.6 384.6 0 0 1 652.51939906 324a288 288 0 1 1-282 0 384.6 384.6 0 0 1-240-357v-33H127.51939906a30 30 0 0 1 30-30 30 30 0 0 1 30 30v32.4a324 324 0 0 0 648 0v-33a29.4 29.4 0 0 1 29.4-28.2 30 30 0 0 1 30.6 30zM285.31939906 576A226.2 226.2 0 1 0 511.51939906 349.79999999999995 226.2 226.2 0 0 0 285.31939906 576z"  horiz-adv-x="1024" />

    
    <glyph glyph-name="role" unicode="&#59071;" d="M877.68908469 165.96251343999995c0 57.15545719-67.21058437 127.54134469-120.66152157 135.47960343l72.50275594 119.60308688L661.7684675 421.04520375c30.16538063 43.39581 50.27563406 100.55126813 50.27563406 164.05733156 0 4.76295469 0 10.05512719 0 14.81808188 65.09371594 11.64277875 107.43109125 30.16538063 107.43109125 48.6879825 0 20.11025344-47.10033094 38.63285531-119.07387 50.27563406-3.17530313 16.93495031-51.86328563 154.00220531-109.01874281 154.00220531-25.40242594 0-45.51267937-13.23043031-58.74310875-33.34068375l0 0c0-10.05512719-10.05512719-20.11025344-23.28555656-20.11025343-11.64277875 0-21.697905 8.46747563-23.28555657 18.52260187l0 0C474.42557844 838.06835719 452.72767344 853.41565594 427.32524844 853.41565594 371.75744188 853.41565594 319.89415625 727.4619628099999 308.25137844 695.70893062 246.33296562 684.06615188 206.11245875 667.13120156 206.11245875 647.02094813s41.80815844-37.04520375 107.43109125-48.68798251c0-4.76295469 0-10.05512719 0-14.81808187 0-63.50606437 18.52260187-120.66152156 50.27563406-164.05733156L196.05733156 419.45755219l71.97353906-117.48621844c-53.45093719 0-123.83682469-73.56119063-123.83682468-137.59647187l1.58765156-192.63506063c0-31.75303219 24.87320812-57.15545719 57.15545719-57.15545719l619.71334031 0c31.75303219 0 57.15545719 25.40242594 57.15545719 57.15545719L877.68908469 165.96251343999995zM698.81367125 698.88423375L698.81367125 698.88423375 698.81367125 698.88423375 698.81367125 698.88423375zM467.54575531-38.31532500000003l-26.9900775 0-50.27563406 370.45203938 105.31422281-92.0837925L467.54575531-38.31532500000003zM582.91510438-38.31532500000003L555.92502781-38.31532500000003l-28.57772906 278.36824688 105.84343969 93.67144406L582.91510438-38.31532500000003zM646.42116875 546.4696799999999l0-11.64277875-13.23043031 0c0 0-8.46747563-71.97353906-53.45093719-71.97353906-45.51267937 0-53.98015406 71.97353906-53.98015406 71.97353906l-30.16538063 0c-6.87982406-58.74310875-37.04520375-71.97353906-53.45093719-71.97353906-40.22050687 0-51.86328563 53.45093719-53.45093718 71.97353906l-13.75964719 0L374.932745 546.4696799999999l0 11.64277875 100.55126813 0L475.48401312 546.4696799999999l67.21058438 0 0 11.64277875 100.55126813 0L643.24586562 546.4696799999999 646.42116875 546.4696799999999z"  horiz-adv-x="1024" />

    
    <glyph glyph-name="caidan1" unicode="&#58896;" d="M102.4 384m-45.51111147 0a45.51111147 45.51111147 0 1 1 91.02222294 0 45.51111147 45.51111147 0 1 1-91.02222294 0ZM102.4 702.5777781300001m-45.51111147 0a45.51111147 45.51111147 0 1 1 91.02222294 0 45.51111147 45.51111147 0 1 1-91.02222294 0ZM102.4 65.42222187000004m-45.51111147 0a45.51111147 45.51111147 0 1 1 91.02222294 0 45.51111147 45.51111147 0 1 1-91.02222294 0ZM238.93333333 429.51111147m45.51111147 0l637.1555552 0q45.51111147 0 45.51111147-45.51111147l0 0q0-45.51111147-45.51111147-45.51111147l-637.1555552 0q-45.51111147 0-45.51111147 45.51111147l0 0q0 45.51111147 45.51111147 45.51111147ZM238.93333333 748.08888853m45.51111147 0l637.1555552 0q45.51111147 0 45.51111147-45.5111104l0 0q0-45.51111147-45.51111147-45.51111146l-637.1555552 0q-45.51111147 0-45.51111147 45.51111146l0 0q0 45.51111147 45.51111147 45.5111104ZM238.93333333 110.93333332999998m45.51111147 0l637.1555552 0q45.51111147 0 45.51111147-45.51111146l0 0q0-45.51111147-45.51111147-45.5111104l-637.1555552 0q-45.51111147 0-45.51111147 45.5111104l0 0q0 45.51111147 45.51111147 45.51111146Z"  horiz-adv-x="1024" />

    
    <glyph glyph-name="jiekou" unicode="&#58985;" d="M278-66c-24 0-48 24-48 54v42H68c-24 0-36 18-36 36s18 36 36 36h162V144c0 30 18 54 48 54h138c24 0 48-24 48-54v-42h492c18 0 36-18 36-36s-18-36-36-36H464v-42c0-30-18-54-48-54H278z m120 72v120H296v-120h102z m210 246c-24 0-48 24-48 54v42H68C50 348 32 366 32 384s18 36 36 36h492v42c0 30 18 54 48 54h138c24 0 48-24 48-54v-42h162c18 0 36-18 36-36s-18-36-36-36h-162v-42c0-30-18-54-48-54H608z m120 72V444H626v-120h102zM278 570c-24 0-48 24-48 54v42H68c-18 0-36 12-36 36 0 18 18 36 36 36h162v42c0 30 18 54 48 54h138c24 0 48-24 48-54v-42h492c18 0 36-18 36-36s-18-36-36-36H464V624c0-30-18-54-48-54H278z m120 72v120H296v-120h102z"  horiz-adv-x="1024" />

    
    <glyph glyph-name="gongzuotai-moren" unicode="&#59127;" d="M266.666667 842.666667a213.333333 213.333333 0 1 1 0-426.666667h181.333333a32 32 0 0 1 32 32V629.333333a213.333333 213.333333 0 0 1-213.333333 213.333334z m8.192-64.213334A149.333333 149.333333 0 0 0 416 629.333333v-149.333333h-149.333333a149.333333 149.333333 0 0 0 0 298.666667l8.192-0.213334zM266.666667-74.666667a213.333333 213.333333 0 0 0 0 426.666667h181.333333a32 32 0 0 0 32-32v-181.333333a213.333333 213.333333 0 0 0-213.333333-213.333334z m8.192 64.213334A149.333333 149.333333 0 0 1 416 138.666667v149.333333h-149.333333a149.333333 149.333333 0 0 1 0-298.666667l8.192 0.213334zM757.333333 842.666667a213.333333 213.333333 0 0 0 0-426.666667H576a32 32 0 0 0-32 32V629.333333a213.333333 213.333333 0 0 0 213.333333 213.333334z m-8.192-64.213334A149.333333 149.333333 0 0 1 608 629.333333v-149.333333h149.333333a149.333333 149.333333 0 0 1 0 298.666667l-8.192-0.213334zM757.333333-74.666667a213.333333 213.333333 0 0 1 0 426.666667H576a32 32 0 0 1-32-32v-181.333333a213.333333 213.333333 0 0 1 213.333333-213.333334z m-8.192 64.213334a149.333333 149.333333 0 0 0-141.141333 149.12v149.333333h149.333333a149.333333 149.333333 0 0 0 0-298.666667l-8.192 0.213334z"  horiz-adv-x="1024" />

    
    <glyph glyph-name="github-square" unicode="&#59044;" d="M360.2139424 198.70476159999998c1.20929493 1.83344747 0.62415253 5.5003424-1.83344747 7.91893333-3.0427424 2.4576-6.7096384 3.0427424-8.54308586 1.209296-1.20929493-1.83344747-0.62415253-5.5003424 1.83344853-7.91893333 3.0427424-2.4576 6.7096384-3.0427424 8.5430848-1.209296z m-17.0471616 25.00510507c-1.83344747 2.4576-4.87619093 3.66689493-7.2947808 2.4576-1.83344747-1.20929493-1.83344747-4.87619093 0-7.2947808 2.4576-3.0427424 5.5003424-4.2520384 7.2947808-3.04274347 1.83344747 1.20929493 1.83344747 4.87619093 0 7.91893333z m-25.00510507 24.38095253c0.62415253 1.20929493-0.62415253 3.66689493-3.0427424 4.87618987-1.83344747 0.62415253-4.2520384 0.62415253-4.87619093-1.20929494-1.20929493-1.83344747 0-3.66689493 2.4576-4.87618986 2.4576-0.62415253 4.87619093-0.62415253 5.50034347 1.20929493z m12.79512427-14.04342827c1.20929493 1.20929493 1.20929493 4.2520384-1.20929493 6.0854848-1.83344747 2.4576-4.87619093 3.0427424-6.08548587 1.83344854-1.83344747-1.83344747-1.20929493-4.2520384 0.62415253-6.7096384 1.83344747-1.83344747 4.87619093-3.0427424 6.70963734-1.20929494z m52.4288-45.71916266c0.62415253 2.4576-1.83344747 5.5003424-5.5003424 6.7096384s-6.7096384 0-7.91893333-2.4576c-0.62415253-2.4576 1.83344747-5.5003424 5.5003424-6.7096384s6.7096384 0 7.91893333 2.4576z m25.59024747-1.83344747c0 2.4576-3.0427424 4.87619093-7.2947808 4.87619093-3.66689493 0-6.08548587-2.4576-6.08548587-4.87619093s3.0427424-4.87619093 6.7096384-4.87618987 6.7096384 2.4576 6.7096384 4.87618987z m23.79581013 4.29104747c-0.62415253 2.4576-4.2520384 3.66689493-7.91893333 3.04274346s-6.08548587-3.0427424-5.50034347-5.50034346 3.66689493-4.2520384 7.2947808-3.66689494 6.08548587 3.66689493 6.08548587 6.08548587zM824.07619093 384c0 172.50011413-139.57607573 312.07619093-312.07619093 312.07619093s-312.07619093-139.57607573-312.07619093-312.07619093c0-137.74262827 89.60487573-254.7712 213.34308586-296.23832427 15.83786667-3.0427424 21.33820907 6.7096384 21.33821014 15.25272427 0 7.2947808 0 31.67573333-0.62415254 57.89013333 0 0-86.56213333-18.88060907-104.8576 37.17607574 0 0-14.0044192 35.9667808-34.75748586 45.09501013 0 0-28.04784747 19.5047616 2.4576 19.5047616 0 0 30.4664384-2.4576 47.55260906-32.29988587 27.42369493-48.13775253 73.1428576-34.13333333 90.81417174-26.2144 3.0427424 20.12891413 10.96167573 34.13333333 20.12891413 42.05226667-69.4759616 7.91893333-142.6188192 34.75748587-142.6188192 154.20464747 0 34.13333333 12.2099808 61.55702827 32.29988587 83.51939093-3.0427424 7.91893333-14.0044192 39.63367573 3.04274346 82.8952384 26.2144 7.91893333 85.9379808-32.29988587 85.9379808-32.29988587 25.00510507 7.2947808 51.21950507 10.37653333 78.01904747 10.37653334s53.0139424-3.0427424 78.01904747-10.37653334c0 0 59.7235808 40.2188192 85.9379808 32.29988587 17.08617173-43.2615616 6.08548587-74.97630507 3.04274346-82.8952384 20.12891413-21.92335253 32.29988587-49.3860576 32.29988587-83.51939093 0-120.07131413-73.1428576-146.28571413-142.6188192-154.20464747 10.96167573-9.7523808 21.33820907-28.63299093 21.33820907-57.89013333 0-41.42811413-0.62415253-74.97630507-0.62415254-85.35283734 0-8.54308587 5.5003424-18.29546667 21.33821014-15.25272426C734.47131413 129.1507808 824.07619093 246.17935252999996 824.07619093 383.96099093z m156.03809494 292.57142827v-585.14285654c0-96.8996576-78.6432-175.5428576-175.5428576-175.5428576h-585.14285654A175.62087573 175.62087573 0 0 0 43.88571413 91.42857173000004v585.14285654C43.88571413 773.47108587 122.52891413 852.11428587 219.42857173 852.11428587h585.14285654C901.47108587 852.11428587 980.11428587 773.47108587 980.11428587 676.5714282700001z"  horiz-adv-x="1024" />

    
    <glyph glyph-name="github-fill" unicode="&#60104;" d="M511.57333333 848.74666667C247.78666667 848.8533333299999 34.13333333 635.30666667 34.13333333 371.73333333000005 34.13333333 163.30666667000003 167.78666667-13.866666669999972 353.92-78.93333332999998c25.06666667-6.29333333 21.22666667 11.52 21.22666667 23.68v82.66666666c-144.74666667-16.96-150.61333333 78.82666667-160.32 94.82666667C195.2 155.73333333000005 148.8 164.26666666999995 162.66666667 180.26666666999995c32.96 16.96 66.56-4.26666667 105.49333333-61.76 28.16-41.70666667 83.09333333-34.66666667 110.93333333-27.73333334 6.08 25.06666667 19.09333333 47.46666667 37.01333334 64.85333334-149.97333333 26.88-212.48 118.4-212.48 227.2 0 52.8 17.38666667 101.33333333 51.52 140.48-21.76 64.53333333 2.02666667 119.78666667 5.22666666 128 61.97333333 5.54666667 126.4-44.37333333 131.41333334-48.32 35.2 9.49333333 75.41333333 14.50666667 120.42666666 14.50666666 45.22666667 0 85.54666667-5.22666667 121.06666667-14.82666666 12.05333333 9.17333333 71.78666667 52.05333333 129.38666667 46.82666666 3.09333333-8.21333333 26.34666667-62.18666667 5.86666666-125.86666666 34.56-39.25333333 52.16-88.21333333 52.16-141.12 0-109.01333333-62.93333333-200.64-213.33333333-227.09333334 25.06666667-24.74666667 40.64-59.09333333 40.64-97.06666666v-120c0.85333333-9.6 0-19.09333333 16-19.09333334 188.90666667 63.68 324.90666667 242.13333333 324.90666667 452.37333334 0 263.68-213.76 477.12-477.33333334 477.12z"  horiz-adv-x="1024" />

    
    <glyph glyph-name="xiazai" unicode="&#58986;" d="M512 864C246.896 864 32 649.104 32 384s214.896-480 480-480 480 214.896 480 480S777.104 864 512 864z m171.53599969-579.53599969l-146.52799969-146.52800062a31.80799969 31.80799969 0 0 0-4.896-3.99999938c-0.78400031-0.528-1.64800031-0.89599969-2.47999969-1.344-1.008-0.54400031-1.968-1.152-3.04000031-1.60000031-1.056-0.432-2.16-0.68800031-3.24799969-1.008-0.912-0.27199969-1.79200031-0.624-2.736-0.816a31.71199969 31.71199969 0 0 0-12.54400031 0c-0.96 0.192-1.84000031 0.54400031-2.76799969 0.816-1.07200031 0.31999969-2.16 0.55999969-3.20000062 0.99199969-1.104 0.44800031-2.09599969 1.07200031-3.13599938 1.64800031-0.78400031 0.432-1.61599969 0.78400031-2.36800031 1.296a32.81599969 32.81599969 0 0 0-4.91200031 4.01599969l-146.544 146.544c-11.28 11.28-14.04799969 29.424-4.73599969 42.384a31.99999969 31.99999969 0 0 0 48.73600031 4.11200062l65.87199938-65.87200031c10.08-10.08 27.312-2.94400031 27.312 11.31199969v330.40000031c0 15.936 10.896 30.72 26.62400062 33.28000031a32.016 32.016 0 0 0 37.37599969-31.56800062v-332.112c0-14.256 17.232-21.39199969 27.312-11.31199969l65.87200031 65.856a31.99999969 31.99999969 0 0 0 48.73599938-4.11199969c9.34399969-12.96 6.576-31.104-4.704-42.384z"  horiz-adv-x="1024" />

    
    <glyph glyph-name="quxiaolianjie" unicode="&#60544;" d="M799.584 208.576l53.728 43.488c131.328 106.368 151.584 299.04 45.248 430.368S599.52 834.048 468.192 727.68l-51.52-41.728L306.72 823.04a32 32 0 0 1-49.28-40.832l640.416-798.4a32 32 0 0 1 49.28 40.832l-147.552 183.936zM518.528 665.504a225.984 225.984 0 1 0 284.448-351.264l-53.44-43.264-118.72 148 84.864 70.688-51.232 61.472-83.68-69.76-114.048 142.176 51.808 41.952zM504.384 72.448a225.984 225.984 0 1 0-284.448 351.264l110.976 89.856-50.336 62.176L169.6 485.888C38.272 379.552 18.016 186.848 124.352 55.52c106.368-131.328 299.04-151.584 430.368-45.248l105.12 85.12-50.336 62.176-105.12-85.12zM446.72 369.696l51.2-61.44-125.856-104.864-51.2 61.44z"  horiz-adv-x="1024" />

    
    <glyph glyph-name="xuanzhong2" unicode="&#58897;" d="M843.84-78.18666667000002H183.46666667c-72.10666667 0-130.88 58.66666667-130.88 130.88V713.06666667c0 72.10666667 58.66666667 130.88 130.88 130.88h660.37333333c72.10666667 0 130.88-58.66666667 130.88-130.88v-660.37333334c0-72.21333333-58.77333333-130.88-130.88-130.88zM183.46666667 782.72c-38.4 0-69.76-31.25333333-69.76-69.76v-660.37333333c0-38.4 31.25333333-69.76 69.76-69.76h660.37333333c38.4 0 69.76 31.25333333 69.76 69.76V713.06666667c0 38.4-31.25333333 69.76-69.76 69.76H183.46666667zM433.28 175.78666667000005h-0.53333333c-9.06666667 0.10666667-17.70666667 3.94666667-24 10.56L216.85333333 387.41333333c-12.90666667 13.54666667-12.48 35.09333333 1.17333334 48 13.54666667 12.90666667 35.09333333 12.48 48-1.17333333L434.13333333 258.13333333l328 322.02666667c13.33333333 13.12 34.88 12.90666667 48-0.42666667 13.12-13.33333333 12.90666667-34.88-0.42666666-48L457.06666667 185.49333333000004c-6.29333333-6.18666667-14.93333333-9.70666667-23.78666667-9.70666666z"  horiz-adv-x="1024" />

    
    <glyph glyph-name="fangxing1" unicode="&#59056;" d="M532.53941943 400.8049793zM532.53941943 400.8049793zM853.70124482-66H170.29875518c-59.75103692 0-104.56431504 48.54771826-104.56431505 104.56431504V725.70124482C65.73444013 785.45228174 114.28215752 830.2655598700001 170.29875518 830.2655598700001h683.40248964C913.45228174 830.2655598700001 958.26555987 781.71784248 958.26555987 725.70124482v-683.40248964c3.73444013-59.75103692-44.81327812-108.29875518-104.56431505-108.29875518zM170.29875518 755.57676328c-18.67219893 0-29.87551846-14.93775967-29.87551846-29.87551846v-683.40248964c0-18.67219893 14.93775967-29.87551846 29.87551846-29.87551846h683.40248964c18.67219893 0 29.87551846 14.93775967 29.87551846 29.87551846V725.70124482c0 18.67219893-14.93775967 29.87551846-29.87551846 29.87551846H170.29875518z"  horiz-adv-x="1024" />

    
    <glyph glyph-name="emoji" unicode="&#58882;" d="M512-128c-137.309091 0-265.309091 53.527273-363.054545 148.945455C53.527273 118.69090900000003 0 246.69090900000003 0 384S53.527273 649.309091 148.945455 747.054545C246.690909 842.472727 374.690909 896 512 896s265.309091-53.527273 363.054545-148.945455c200.145455-200.145455 200.145455-523.636364 0-723.781818C777.309091-74.47272699999996 649.309091-128 512-128m0 956.509091c-118.690909 0-230.4-46.545455-314.181818-130.327273-83.781818-83.781818-130.327273-195.490909-130.327273-314.181818s46.545455-230.4 130.327273-314.181818c83.781818-83.781818 195.490909-130.327273 314.181818-130.327273s230.4 46.545455 314.181818 130.327273C1000.727273 244.36363600000004 1000.727273 525.963636 826.181818 700.509091 742.4 781.963636 630.690909 828.509091 512 828.509091M330.472727 244.36363600000004s60.509091-95.418182 181.527273-95.418181c121.018182 0 202.472727 95.418182 202.472727 95.418181s44.218182 0 44.218182-48.872727c0 0-79.127273-111.709091-246.690909-111.709091-167.563636 0-223.418182 111.709091-223.418182 111.709091s-2.327273 48.872727 41.890909 48.872727m32.581818 304.872728c-34.909091 0-62.836364-27.927273-62.836363-62.836364 0-34.909091 27.927273-62.836364 62.836363-62.836364 34.909091 0 62.836364 27.927273 62.836364 62.836364 0 34.909091-27.927273 62.836364-62.836364 62.836364m321.163637 0c-34.909091 0-62.836364-27.927273-62.836364-62.836364 0-34.909091 27.927273-62.836364 62.836364-62.836364 34.909091 0 62.836364 27.927273 62.836363 62.836364 0 34.909091-27.927273 62.836364-62.836363 62.836364m0 0z"  horiz-adv-x="1025" />

    
    <glyph glyph-name="lingdao" unicode="&#58902;" d="M442.8 149.20000000000005L511.4-27l67.9 174.2L543 270.5c3.3 3 5.4 7.2 5.4 12v28.3c0 9-7.4 16.4-16.4 16.4h-42.8c-9 0-16.4-7.4-16.4-16.4v-28.3c0-5.5 2.9-10.1 7.1-13.1l-37.1-120.2zM688.6 329.4l-177.3-454.6-177 454.7C155 259.20000000000005 66.8 85.29999999999995 30.8-128h961.1c-36.1 213.2-124.1 387-303.3 457.4zM513.3 896C368.8 895.9 251.7 778.8 251.7 634.4c0-144.5 117.2-261.6 261.7-261.6S775 489.9 775 634.4C774.9 778.8 657.8 895.9 513.3 896z m0-478.5c-115.7 0.2-209.8 90.7-216.2 204.7 49.6 43.5 84.5 100.6 96.5 165 60.5-67.7 152.9-111 256.5-111 25.5 0 50.2 2.8 74.1 7.8 3.7-16 5.9-32.5 6-49.6-0.3-119.7-97.2-216.7-216.9-216.9z"  horiz-adv-x="1024" />

    
    <glyph glyph-name="zanwu" unicode="&#58885;" d="M699.904 124.416v517.12l-143.36-36.864c-56.832-14.848-79.36-51.712-64.512-109.056l98.816-378.368c14.848-56.832 51.712-79.36 109.056-64.512l29.696 7.168c-17.408 14.848-29.696 37.376-29.696 64.512z m-7.168 7.168l-39.424-12.288-14.848 41.984 54.272 17.408v-47.104z m2.048 136.192l-81.408-27.136-14.848 41.984 96.256 29.696v-44.544z m0 131.072l-125.952-41.984-12.288 44.544 138.752 44.544-0.512-47.104z m106.496-36.864c0-14.848 9.728-24.576 24.576-24.576s24.576 9.728 24.576 24.576-9.728 24.576-24.576 24.576c-12.288-2.56-24.576-12.288-24.576-24.576z m0-133.632c0-14.848 9.728-24.576 24.576-24.576s24.576 9.728 24.576 24.576-9.728 24.576-24.576 24.576c-12.288 0-24.576-9.728-24.576-24.576z m0-116.224c0-14.848 9.728-24.576 24.576-24.576s24.576 9.728 24.576 24.576-9.728 24.576-24.576 24.576c-12.288 0-24.576-12.288-24.576-24.576z m79.36 274.432h301.568v-49.664H880.64V386.56z m0-133.632h301.568v-49.664H880.64v49.664z m0-116.224h301.568v-49.664H880.64v49.664z m-482.304 9.728c0-9.728 7.168-19.968 19.968-19.968 9.728 0 19.968 7.168 19.968 19.968 0 9.728-7.168 19.968-19.968 19.968s-19.968-7.68-19.968-19.968zM363.52 317.44c-17.408 0-29.696 12.288-29.696 29.696s12.288 29.696 29.696 29.696 29.696-12.288 29.696-29.696-12.288-29.696-29.696-29.696z m0 54.272c-12.288 0-22.016-9.728-22.016-22.016s9.728-22.016 22.016-22.016 22.016 9.728 22.016 22.016c0.512 9.728-9.728 22.016-22.016 22.016zM1375.232 816.64c-22.016 0-39.424 17.408-39.424 39.424S1353.216 895.488 1375.232 895.488s39.424-17.408 39.424-39.424-17.408-39.424-39.424-39.424z m0 72.192c-17.408 0-32.256-14.848-32.256-32.256s14.848-32.256 32.256-32.256 32.256 14.848 32.256 32.256-14.848 32.256-32.256 32.256z m197.632-282.112c-19.968 0-36.864 17.408-36.864 36.864s17.408 36.864 36.864 36.864 36.864-17.408 36.864-36.864c0.512-22.016-16.896-36.864-36.864-36.864z m0 64c-17.408 0-29.696-12.288-29.696-29.696s12.288-29.696 29.696-29.696 29.696 12.288 29.696 29.696-12.288 29.696-29.696 29.696z m-197.632-93.696c0-9.728 7.168-17.408 17.408-17.408 9.728 0 17.408 7.168 17.408 17.408 0 9.728-7.168 17.408-17.408 17.408s-17.408-7.68-17.408-17.408zM232.448 235.52l2.56 7.168 59.392-9.728-2.56-7.168-59.392 9.728zM252.416 205.824l17.408 59.392 7.168-2.56-19.968-59.392-4.608 2.56z m1187.328 531.968l41.984-29.696-41.984-34.816v64.512z m69.12 47.104l64.512 17.408v-5.12l-64.512-17.408v5.12zM1526.272 819.2l5.12 2.56 22.016-59.392-7.168-2.56-19.968 59.392zM515.072 563.712l38.4 10.24 10.24-38.4-38.4-10.24-10.24 38.4z m113.152 32.768l10.24-38.4-38.4-10.24-10.24 38.4 38.4 10.24z m66.56-54.272l-163.328-44.544 12.288-41.984 151.04 39.424v47.104zM724.48 65.024l-54.272-14.848c-41.984-9.728-83.968 14.848-94.208 54.272L462.336 535.04c-9.728 41.984 14.848 83.968 54.272 94.208l182.784 49.664V691.2l-185.344-49.664c-49.664-12.288-76.8-61.952-64.512-111.104L563.2 99.84c9.728-39.424 47.104-66.56 89.088-66.56 7.168 0 14.848 0 22.016 2.56l66.56 17.408c-6.144 4.096-11.264 6.656-16.384 11.776zM692.736 398.848l-121.344-36.864-9.728 36.864 131.072 41.984V448l-140.8-44.544 17.408-49.664 123.904 39.424v5.632zM845.824 537.6l-7.168 12.288 66.56 47.104-66.56 44.544 7.168 12.288 83.968-56.832-83.968-59.392z m302.08 0l-83.968 56.832 83.968 56.832 7.168-12.288-66.56-44.544 66.56-47.104-7.168-9.728z m-156.16-101.888c-27.136 0-49.664 22.016-49.664 49.664s22.016 49.664 49.664 49.664c27.136 0 49.664-22.016 49.664-49.664s-22.528-49.664-49.664-49.664z m0 87.04c-19.968 0-36.864-17.408-36.864-36.864 0-19.968 17.408-36.864 36.864-36.864s36.864 17.408 36.864 36.864c-2.048 22.016-16.896 36.864-36.864 36.864zM301.568 40.448h1395.2v-17.408h-1395.2v17.408z m-190.464 0h123.904v-17.408H111.104v17.408zM0 40.448h64.512v-17.408H0v17.408z m1877.504-17.408H1753.6v17.408h123.904v-17.408z m111.104 0h-64.512v17.408h64.512v-17.408zM428.032-105.984h71.68V-128h-71.68v22.016z m135.68 0h252.416V-128H563.712v22.016z m336.384 0h428.032V-128H900.096v22.016z m512 0h155.648V-128h-155.648v22.016zM1189.888 779.776H776.704c-49.664 0-91.648-39.424-91.648-91.648v-563.712c0-49.664 39.424-91.648 91.648-91.648h428.032c49.664 0 91.648 39.424 91.648 91.648V670.72l-106.496 109.056z m93.696-655.36c0-41.984-34.816-76.8-76.8-76.8H776.192c-41.984 0-76.8 34.816-76.8 76.8V688.128c0 41.984 34.816 76.8 76.8 76.8h408.064l98.816-98.816v-541.696zM1175.04 641.024l2.56 136.192 118.784-121.344-121.344-14.848z m14.848 103.936l-2.56-89.088 76.8 9.728-74.24 79.36zM692.736 611.328L657.92 601.6l9.728-36.864 24.576 7.168v39.424z m0-340.992l-76.8-24.576-12.288 36.864 89.088 27.136v7.68l-96.256-29.696 14.848-49.664 81.408 24.576v7.68z m0-136.192l-39.424-12.288-9.728 36.864 49.664 17.408v7.168l-59.392-19.968 17.408-49.664 41.984 12.288-0.512 8.192z"  horiz-adv-x="1993" />

    
    <glyph glyph-name="qiyong" unicode="&#59203;" d="M512 896C229.2304 896 0 666.7696 0 384s229.2304-512 512-512 512 229.2304 512 512S794.7696 896 512 896z m0-950.8576c-242.3744 0-438.8576 196.48-438.8576 438.8576S269.6256 822.8576 512 822.8576 950.8576 626.3744 950.8576 384 754.3744-54.8576 512-54.8576zM822.1264 590.9952a36.5712 36.5712 0 0 1-51.9312 0L433.7376 254.5376 253.0752 435.9312a36.5712 36.5712 0 1 1-51.2-51.9312l206.9936-206.9936a36.5712 36.5712 0 0 1 51.9312 0l362.0576 362.0576a36.5712 36.5712 0 0 1-0.7312 51.9312z"  horiz-adv-x="1024" />

    
    <glyph glyph-name="xuqiu" unicode="&#59108;" d="M64.63412149 857.23075318h880.26013393a25.86487467 25.86487467 0 0 0 25.94254695-25.86487467v-880.26013393c0-14.36937482-11.65084445-25.94254697-25.94254695-25.94254695H64.63412149a25.86487467 25.86487467 0 0 0-25.86487467 25.94254695V831.36587851a25.86487467 25.86487467 0 0 0 25.86487467 25.86487467zM635.91386075 631.3597155499999H373.69218845a52.66181689 52.66181689 0 0 1-52.19578311-53.36086755l-0.31068919-426.80926815 183.61730844 108.27518103 183.53963616-108.27518103V577.9211757a52.89483378 52.89483378 0 0 1-52.4288 53.36086755z"  horiz-adv-x="1024" />

    
    <glyph glyph-name="fujian" unicode="&#59125;" d="M645 316.3c18-0.3 33.2-16.4 32.7-34.4-0.6-18-16.9-33.5-34.9-33.1L336.5 250c-35.6-0.4-69.5 13.8-93.9 39.4-24.3 25.6-36.8 60.3-34.6 95.8 4.7 74.2 69.7 136 144.1 136.9l477.5 0.2c112.5-2.1 197.5-91.5 193.8-204-3.7-112.5-101.3-205.2-213.8-203.2L260 111.8C109.1 112.4-6.3 233.8 0.8 384.5c7.2 150.7 135 272.2 285.9 271.6l306.3-1.2c18-0.3 33.2-16.4 32.7-34.4-0.6-18-16.9-33.5-34.9-33.1l-306.3 1.2C171.9 590.7 74.3 498 70.7 385.5 67 273 151.9 183.6 264.5 181.5l545-1.1c74.3 0.9 139.4 62.7 144.1 136.9 4.7 74.2-54.1 136.1-128.5 135.2l-477.5-0.2c-36 0.7-68.5-30.2-72-68.5-1.2-36 27.1-65.8 65.3-68.8l304.1 1.3z"  horiz-adv-x="1024" />

    
    <glyph glyph-name="zan" unicode="&#58880;" d="M931.84 561.46c-39.936 10.444-133.837 10.24-271.258 13.926 6.554 30.003 7.988 57.036 7.988 104.96C668.672 795.034 585.114 896 511.18 896c-52.223 0-95.231-42.7-95.846-95.13-0.716-64.307-20.48-175.41-127.795-231.833-7.885-4.096-30.31-15.155-33.587-16.691l1.638-1.434a101.376 101.376 0 0 1-63.897 25.6H95.846A95.949 95.949 0 0 1 0 480.666V-30.720000000000027c0-52.838 43.008-95.846 95.846-95.846h95.847a94.72 94.72 0 0 1 85.299 55.193l1.434-0.41 7.68-2.047c0.512 0 0.819-0.103 1.433-0.308 18.432-4.608 53.863-13.004 129.536-30.412 16.384-3.687 101.99-22.016 190.874-22.016h174.694c53.248 0 92.672 19.865 114.381 61.644 21.3 37.07 125.542 236.032 125.44 516.506 0 40.346-27.955 91.853-90.624 109.773zM223.642-30.720000000000027c0-17.613-14.336-31.949-31.95-31.949H95.847a31.949 31.949 0 0 0-31.948 31.949V480.666c0 17.612 14.336 31.948 31.948 31.948h95.847c17.715 0 31.949-14.336 31.949-31.948V-30.720000000000027zM957.85 431.514c-13.312-321.024-117.146-466.33-117.146-466.33-9.728-17.408-25.19-27.853-58.163-27.853H607.949c-87.757 0-174.797 19.866-177.05 20.48-132.71 30.515-139.673 32.87-147.968 35.226l4.608 469.504c0 48.537 1.024 36.25 0 35.635C433.562 558.592 478.003 691.2 479.232 800.051A32.051 32.051 0 0 0 511.181 832c33.792 0 93.491-67.789 93.491-151.757 0-75.776-3.072-88.78-29.594-167.731 319.488 0 317.338-4.608 345.498-11.98 35.02-10.036 37.888-38.913 37.888-48.948 0-10.957-0.205-9.42-0.614-20.07z"  horiz-adv-x="1024" />

    
    <glyph glyph-name="fujian1" unicode="&#58945;" d="M672.1 831.8c25.7 0 51.4-6.4 70.7-12.9C820 786.8 865 716 865 632.4c0-51.4-19.3-102.9-57.9-141.5L447 124.4c-12.9-12.9-25.7-19.3-38.6-25.7-12.9-6.4-25.7-6.4-45-6.4-12.9 0-32.2 0-45 6.4-12.9 6.4-25.7 12.9-32.2 25.7-12.9 12.9-19.3 25.7-25.7 38.6-6.4 12.9-6.4 32.1-6.4 45 0 32.2 12.9 64.3 32.2 83.6l328 340.8c6.4 6.4 19.3 12.9 25.7 12.9 12.9 0 25.7-6.4 32.2-12.9 6.4-6.4 12.9-19.3 12.9-25.7-6.4-12.9-6.4-19.3-12.9-32.2L337.7 240.2c-6.4-6.4-12.9-19.3-12.9-32.2 0-19.3 19.3-38.6 38.6-38.6 12.9 0 19.3 6.4 25.7 12.9l360.1 366.5c25.7 25.7 32.1 51.4 32.1 83.6 0 32.2-12.9 57.9-32.1 83.6-19.3 25.7-45 38.6-77.2 38.6s-64.3-12.9-83.6-38.6l-360-366.5c-19.3-19.3-32.2-38.6-45-64.3-19.3-45-19.3-102.9 0-147.9 12.9-25.7 25.7-45 45-64.3 38.6-38.6 83.6-57.9 135-57.9 51.4 0 102.9 19.3 135 57.9L865 433.1c6.4 12.9 12.9 12.9 25.7 12.9 12.9 0 19.3-6.4 25.7-12.9 6.4-6.4 12.9-12.9 12.9-25.7s-6.4-19.3-12.9-25.7L556.3 15.1c-25.7-25.7-57.9-45-90-64.3-32.2-12.9-64.3-19.3-102.9-19.3-38.6 0-70.7 6.4-102.9 19.3s-64.3 32.2-90 64.3c-25.7 25.7-45 57.9-57.9 90-12.8 32.2-19.2 70.8-19.2 102.9 0 38.6 6.4 70.7 19.3 109.3 12.9 32.2 32.2 64.3 57.9 90l360.1 366.5c38.5 38.7 89.9 58 141.4 58z m0 0"  horiz-adv-x="1024" />

    
    <glyph glyph-name="lianjie" unicode="&#58915;" d="M701.7 844.8c71.9 0.2 140.9-28.4 191.7-79.3 105.7-105.7 106-276.9 0.8-383.1L742.3 230.7l-69.9 68.6L824.2 451c67.8 67.8 67.8 177.6 0 245.4-67.8 67.8-177.7 67.8-245.4 0l-151.2-151-69.1 69.1 151.5 151c50.7 51 119.7 79.5 191.7 79.3z m-67.6-269.5l68.9-68.9-312.8-312.9-68.9 68.9 312.8 312.9z m-352.4-37.6l69.9-68.6-151.8-151.7c-67.8-67.8-67.8-177.6 0-245.4 67.8-67.8 177.7-67.8 245.4 0l151.2 151 69.1-69.1-151-151.2c-106-106-277.9-106-383.9 0s-106 277.8 0 383.8l151.1 151.2z"  horiz-adv-x="1024" />

    
    <glyph glyph-name="i" unicode="&#58895;" d="M512 834.56c248.32 0 450.56-202.24 450.56-450.56s-202.24-450.56-450.56-450.56-450.56 202.24-450.56 450.56 202.24 450.56 450.56 450.56m0 61.44C229.376 896 0 666.624 0 384s229.376-512 512-512 512 229.376 512 512S794.624 896 512 896z"  horiz-adv-x="1024" />

    
    <glyph glyph-name="partial" unicode="&#59043;" d="M531.59857835 892.60599296c-3.52432128 0.15019349-7.07658525 0.19094414-10.61953536 0.26895246-2.99805923 0.05239353-5.96701184 0.22703787-8.97787904 0.22703787-0.36675243 0-0.72652003-0.02677874-1.09210852-0.02677874-0.46688256 0.00116395-0.92794311 0.02677874-1.39598962 0.02677874-0.88486457 0-1.75575723-0.06520035-2.62781383-0.12923676-278.31192462-2.76287261-503.09887773-229.52214073-503.09887772-508.97274653 0-281.16910535 227.53585379-509.10198329 508.21478969-509.10198329s508.21479083 227.93287794 508.21479082 509.10198329c-0.00116395 274.58501632-217.03507627 498.2740389-488.61737642 508.60599296z m-19.59857835-952.25247289c-244.1387008 0-442.75928633 199.01877475-442.75928633 443.64647993 0 241.75771762 194.02162062 438.83677696 434.22034603 443.42875591v-443.34725575l425.0002944 150.48979342c16.99172238-47.03751965 26.29676829-97.73209145 26.29676828-150.57245753 0.00116395-244.62654009-198.61942158-443.64531485-442.75812238-443.64531598z"  horiz-adv-x="1024" />

    
    <glyph glyph-name="quxiao" unicode="&#59087;" d="M512-128C229.23-128 0 101.23 0 384S229.23 896 512 896s512-229.23 512-512-229.23-512-512-512z m0 950.857C283.087 822.857 73.143 612.913 73.143 384S283.087-54.857 512-54.857 950.857 155.087 950.857 384 740.913 822.857 512 822.857z m229.45-671.963a48.713 48.713 0 0 0-68.95 0L517.34 306.03 362.178 150.894a48.738 48.738 0 1 0-68.974 68.949l155.16 155.16-155.16 155.16a48.762 48.762 0 0 0 68.974 68.95l155.16-155.16 155.16 155.16a48.762 48.762 0 1 0 68.95-68.95l-155.16-155.16 155.16-155.16a48.762 48.762 0 0 0 0-68.95z"  horiz-adv-x="1024" />

    
    <glyph glyph-name="xuanzhong" unicode="&#58932;" d="M754.56 384a242.688 242.688 0 0 0-242.752-242.56 242.56 242.56 0 1 0 0 485.12A242.688 242.688 0 0 0 754.624 384zM511.808 829.184c-245.824 0-445.824-199.744-445.824-445.248 0-245.44 200-445.184 445.696-445.184 245.76 0 445.696 199.68 445.696 445.184 0 245.504-199.872 445.248-445.568 445.248z m0-956.416a512.64 512.64 0 0 0-490.432 364.992 506.88 506.88 0 0 0-21.248 146.176c0 86.08 21.248 167.104 59.008 238.4a517.376 517.376 0 0 0 157.312 178.88A508.288 508.288 0 0 0 511.808 895.168a508.16 508.16 0 0 0 251.136-65.984 513.728 513.728 0 0 0 214.592-233.664 507.52 507.52 0 0 0 45.952-211.712c0-100.48-29.248-194.432-79.68-273.664a514.752 514.752 0 0 0-189.184-176.256 512 512 0 0 0-242.816-61.12z"  horiz-adv-x="1024" />

    
    <glyph glyph-name="bufenchenggong" unicode="&#59054;" d="M512 896a512 512 0 1 1 0-1024A512 512 0 0 1 512 896z m0-928a416 416 0 0 0 0 832V384l294.144-294.144A414.72 414.72 0 0 0 512-32z"  horiz-adv-x="1024" />

    
    <glyph glyph-name="bufentongji" unicode="&#58950;" d="M512 896a512 512 0 1 1 512-512A512 512 0 0 1 512 896z m76.8-894.976A392.192 392.192 0 1 0 512 777.728a392.192 392.192 0 0 0 76.8-776.704zM512 384V871.424a487.424 487.424 0 0 1 0-972.8m0 972.8"  horiz-adv-x="1024" />

    
    <glyph glyph-name="shandianfahuo" unicode="&#58931;" d="M873.81333333 745.81333333C674.47466667 945.152 349.52533333 945.152 149.504 745.81333333A509.20106667 509.20106667 0 0 1 0 384c0-136.53333333 53.248-265.55733333 150.18666667-361.81333333 99.66933333-99.66933333 230.74133333-150.18666667 361.81333333-150.18666667s262.144 49.83466667 361.81333333 149.504c96.93866667 96.93866667 150.18666667 225.28 150.18666667 361.81333333 0 137.216-53.248 266.24-150.18666667 362.496z m-96.256-627.37066666c-146.09066667-146.09066667-384.34133333-146.09066667-531.11466666 0A372.736 372.736 0 0 0 136.53333333 384c0 100.352 38.912 194.56 109.90933334 265.55733333C319.488 722.60266667 415.744 759.46666667 512 759.46666667s192.512-36.864 265.55733333-109.90933334A372.736 372.736 0 0 0 887.46666667 384c0-100.352-38.912-194.56-109.90933334-265.55733333zM556.37333333 456.36266667l27.30666667 252.58666666c0 2.048-0.68266667 4.096-2.048 5.46133334-0.68266667 1.36533333-2.048 2.048-4.096 2.048h-7.50933333c-2.048 0-4.096-1.36533333-5.46133334-2.73066667L303.78666667 327.33866666999995c-1.36533333-2.048-1.36533333-4.77866667-0.68266667-6.82666667 1.36533333-2.048 3.41333333-3.41333333 6.144-3.41333333H443.73333333l-36.18133333-257.36533334c0-2.048 0-4.096 1.36533333-5.46133333 1.36533333-1.36533333 3.41333333-2.048 5.46133334-2.048h4.77866666c2.048 0 4.096 1.36533333 5.46133334 2.73066667l273.74933333 391.168c1.36533333 2.048 1.36533333 4.77866667 0.68266667 6.82666666a7.168 7.168 0 0 1-6.144 3.41333334h-136.53333334z"  horiz-adv-x="1024" />

    
    <glyph glyph-name="renwuzuguanli" unicode="&#58884;" d="M932.864 669.696l-80.896 95.232-68.608 75.776C754.688 874.496 711.68 893.952 667.648 893.952H208.896c-23.552 0-48.128-5.12-69.632-15.36-54.272-26.624-87.04-80.896-87.04-138.24V25.6c0-84.992 68.608-153.6 153.6-153.6h615.424c40.96 0 79.872 16.384 108.544 45.056 28.672 28.672 45.056 67.584 45.056 108.544V568.32c-1.024 36.864-16.384 73.728-41.984 101.376zM727.04 358.4L476.16 107.52c-16.384-16.384-41.984-16.384-57.344 0l-48.128 48.128-70.656 70.656c-21.504 21.504-21.504 56.32 0 76.8 21.504 21.504 56.32 21.504 76.8 0l70.656-70.656L649.216 435.2c21.504 21.504 56.32 21.504 76.8 0 22.528-21.504 22.528-56.32 1.024-76.8z m-10.24 218.112c-16.384 0-31.744 6.144-43.008 18.432-11.264 11.264-18.432 27.648-18.432 43.008v184.32l230.4-245.76H716.8z"  horiz-adv-x="1024" />

    
    <glyph glyph-name="bumen" unicode="&#59014;" d="M192 512H64V832h320v-320H256v-256h128v-128h384V384h-128V704h320v-320h-128v-320H384v-128H64v320h128V512z m128-320H128v-192h192v192z m576 448h-192v-192h192V640zM320 768H128v-192h192V768z"  horiz-adv-x="1024" />

    
    <glyph glyph-name="bianji" unicode="&#58940;" d="M879.656 40.12 137.288 40.12c-11.048 0-20-8.952-20-20s8.952-20 20-20l742.368 0c11.048 0 20 8.952 20 20S890.704 40.12 879.656 40.12zM166.592 97.84c1.832 0 3.68 0.248 5.496 0.768l123.072 35.152c3.272 0.936 6.248 2.688 8.648 5.096l386.816 386.808c7.816 7.808 7.816 20.472 0 28.28-7.816 7.816-20.472 7.816-28.28 0L327.76 219.376l-64.976 64.984c-2.304 2.304-5.048 3.84-7.952 4.792l327.352 327.352c7.816 7.808 7.816 20.472 0 28.28-7.816 7.816-20.472 7.816-28.28 0L170.032 260.912c-3.096-3.088-5.088-7.112-5.672-11.44l-17.584-128.928c-0.912-6.696 1.616-13.392 6.72-17.824C157.176 99.536 161.84 97.84 166.592 97.84zM203.08 237.4l26.632 26.624c0.944-2.896 2.488-5.64 4.784-7.944l64.984-64.992-20.288-20.288-88.64-25.312L203.08 237.4zM700.792 566.624c3.84-3.552 8.712-5.312 13.56-5.312 5.384 0 10.752 2.16 14.696 6.424l70.584 76.368c3.6 3.896 5.504 9.064 5.296 14.36s-2.512 10.304-6.416 13.904L701.56 761.936c-8.112 7.496-20.776 6.992-28.256-1.12l-70.56-76.368c-7.504-8.112-7-20.768 1.12-28.264L700.792 566.624zM689.112 718.984l67.568-62.416-43.44-46.992-67.544 62.424L689.112 718.984z"  horiz-adv-x="1024" />

    
    <glyph glyph-name="tuandui" unicode="&#58927;" d="M606.6688 785.5104c-126.8992 0-230.1184-103.2448-230.1184-230.144 0-87.7056 49.3312-164.0448 121.6768-202.88-150.6304-46.4128-260.4288-186.9056-260.4288-352.5888 0-12.16 9.8304-21.9648 21.9648-21.9648 12.1344 0 21.9648 9.8048 21.9648 21.9648 0 179.1744 145.792 324.9152 323.328 325.0176 2.432-0.2304 4.8128-0.0512 7.0656 0.4864 124.3648 2.9184 224.6656 104.9088 224.6656 229.9648C836.7872 682.2912 733.5424 785.5104 606.6688 785.5104L606.6688 785.5104zM606.6688 369.2288c-102.656 0-186.1888 83.5072-186.1888 186.1376 0 102.7072 83.5072 186.1888 186.1888 186.1888 102.656 0 186.1632-83.5072 186.1632-186.1888C792.832 452.7104 709.3248 369.2288 606.6688 369.2288L606.6688 369.2288zM867.8656 260.3264c-8.576 8.6016-22.4768 8.6016-31.0784 0.0512-8.576-8.576-8.6016-22.4768-0.0512-31.0784 61.184-61.3376 94.848-142.848 94.848-229.4016 0-12.16 9.8304-21.9648 21.9648-21.9648 12.1344 0 21.9648 9.8048 21.9648 21.9648C975.5392 98.176 937.3184 190.72 867.8656 260.3264L867.8656 260.3264zM374.2208 363.5968c0 0 0 0.0512 0 0.0768 0 0.0256 0 0.0512 0 0.0512 0 12.16-9.8304 21.9904-21.9648 21.9904-79.7184 0-144.5632 69.2992-144.5632 154.4448 0 85.1456 64.8448 154.4448 144.5632 154.4448 12.1344 0 21.9648 9.856 21.9648 21.9648 0 12.1344-9.8304 21.9648-21.9648 21.9648-103.936 0-188.4928-89.0112-188.4928-198.4 0-72.832 37.504-136.6016 93.2608-171.0848-118.5792-42.0864-204.2624-160.4096-204.2624-299.52 0-12.1344 9.8304-21.9648 21.9648-21.9648 12.1344 0 21.9648 9.8304 21.9648 21.9648 0 150.016 114.6368 272.0256 255.5904 272.0256C364.3904 341.6064 374.1952 351.4368 374.2208 363.5968L374.2208 363.5968zM374.2208 363.5968"  horiz-adv-x="1024" />

    
    <glyph glyph-name="bianji1" unicode="&#58937;" d="M908.785955 403.584034c-11.04966 0-20.008706-8.958022-20.008706-20.008706l0-338.328565c0-38.614459-31.416524-70.030983-70.030983-70.030983L202.707748-24.78422c-38.614459 0-70.030983 31.416524-70.030983 70.030983l0 676.303067c0 38.614459 31.416524 70.030983 70.030983 70.030983l362.378308 0c11.04966 0 20.008706 8.958022 20.008706 20.008706 0 11.050684-8.959046 20.008706-20.008706 20.008706L202.707748 831.598224c-60.681034 0-110.049418-49.367361-110.049418-110.049418l0-676.303067c0-60.681034 49.367361-110.049418 110.049418-110.049418l616.038518 0c60.681034 0 110.049418 49.367361 110.049418 110.049418L928.795685 383.574305C928.795685 394.626012 919.836639 403.584034 908.785955 403.584034zM942.576549 778.014842 907.20597 813.385421c-23.405059 23.405059-61.486376 23.400966-84.891436 0l-422.369633-422.36861c-1.295506-1.296529-2.407839-2.76395-3.304256-4.363378L269.318842 159.583834c-4.457522-7.951089-2.977821-17.909905 3.598968-24.221658 3.830235-3.675716 8.823969-5.572926 13.859659-5.572926 3.613294 0 7.247054 0.977257 10.488889 2.973728l219.285309 135.104047c1.327228 0.816598 2.552126 1.784646 3.654226 2.885723l422.369633 422.36861C965.979562 716.528466 965.979562 754.609783 942.576549 778.014842zM418.556794 343.919143l55.42124-55.279001-132.025942-81.343633L418.556794 343.919143zM914.279063 721.420893 505.926678 313.069531l-63.748906 63.586201L850.612021 785.087934c7.798617 7.800663 20.493753 7.804756 28.29544 0l35.371602-35.371602C922.081773 741.915669 922.081773 729.222579 914.279063 721.420893z"  horiz-adv-x="1024" />

    
    <glyph glyph-name="tishi" unicode="&#58977;" d="M949.79140267 568.942592c-23.937024 56.57941333-58.18504533 107.38619733-101.82656 151.02225067-43.62513067 43.62513067-94.44283733 77.89499733-151.01678934 101.82656C638.369792 846.569472 576.13789867 859.136 512 859.136c-64.126976 0-126.34794667-12.566528-184.93713067-37.34459733-56.56849067-23.93156267-107.39165867-58.195968-151.02225066-101.82109867-43.63605333-43.63605333-77.89499733-94.44829867-101.82656-151.02225067C49.44145067 510.36433067 36.864 448.13243733 36.864 384s12.57745067-126.35886933 37.35005867-184.93713067c23.93156267-56.57941333 58.19050667-107.39165867 101.83202133-151.02225066 43.62513067-43.630592 94.437376-77.89499733 151.01678933-101.82656C385.64113067-78.56401067000002 447.86756267-91.13599999999997 512-91.13599999999997c64.14336 0 126.35886933 12.57198933 184.95351467 37.35005867 56.573952 23.93156267 107.39165867 58.19050667 151.01678933 101.82656 43.63605333 43.630592 77.889536 94.44283733 101.82656 151.02225066C974.569472 257.64113067000005 987.136 319.86756267 987.136 384s-12.566528 126.36433067-37.34459733 184.942592z m-60.915712-344.14045867c-20.594688-48.69870933-50.102272-92.44398933-87.65986134-130.01250133a407.928832 407.928832 0 0 0-130.00704-87.65986133c-50.41902933-21.32104533-103.989248-32.13448533-159.21425066-32.13448534-55.21954133 0-108.77883733 10.80797867-159.19786667 32.13448534-48.70417067 20.60014933-92.438528 50.09134933-130.00157867 87.65986133a407.79776 407.79776 0 0 0-87.65986133 130.01250133c-21.32650667 50.41902933-32.13994667 103.97832533-32.13994667 159.19786667s10.80797867 108.78429867 32.13994667 159.19786667a407.650304 407.650304 0 0 0 87.65986133 130.01250133 407.75406933 407.75406933 0 0 0 130.00157867 87.65986133c50.41902933 21.32104533 103.97832533 32.13994667 159.19786667 32.13994667 55.22500267 0 108.77883733-10.81344 159.203328-32.13994667 48.70417067-20.60014933 92.438528-50.09134933 130.00704-87.65986133a407.650304 407.650304 0 0 0 87.65986133-130.01250133c21.331968-50.413568 32.13994667-103.97832533 32.13994667-159.19786667s-10.80797867-108.77883733-32.129024-159.19786667zM552.288256 310.96558932999994c-2.73066667-29.81341867-21.68695467-43.74528-40.39748267-43.74528-13.89909333 0 0 0 0 0-17.77117867 3.34779733-31.571968 10.928128-37.634048 41.08014934l-24.45038933 281.87579733c0 28.33339733 34.44462933 53.40637867 63.668224 53.40637867 29.229056 0 60.70818133-26.21986133 60.70818133-54.50410667l-21.89448533-278.11293867zM512 230.34538667000004c-29.229056 0-52.94762667-23.691264-52.94762667-52.94762667 0-29.261824 23.691264-52.985856 52.94762667-52.985856 29.25090133 0 52.953088 23.724032 52.953088 52.985856-0.00546133 29.21813333-23.707648 52.94762667-52.953088 52.94762667z"  horiz-adv-x="1024" />

    
    <glyph glyph-name="gengduo-2" unicode="&#58901;" d="M32 811.51936781h182.14464094v-182.14464093H32zM315.15698844 761.08431562h677.88612187v-81.28130999H315.15698844zM32 474.79799625h182.14464094v-182.15141438H32zM315.15698844 424.35617063h677.88612187v-81.28131H315.15698844zM32 138.05630437000002h182.14464094v-182.13786749H32zM315.15698844 87.62802468999996h677.88612187v-81.28130907H315.15698844z"  horiz-adv-x="1025" />

    
    <glyph glyph-name="jiaren" unicode="&#58900;" d="M719.82666688 270.49333312a417.16000031 417.16000031 0 0 1-93.16000032 40.64000063c93 49.27999969 156.53333344 147.05333344 156.53333344 259.42666594C783.2 732.36 651.56 864 489.74666656 864S196.29333313 732.36 196.29333313 570.55999969c0-117.48 69.42666656-219 169.37333343-265.83999938-162.14666625-57.88000031-278.54666625-212.93333344-278.54666625-394.73333344h51.89333344c0 202.44 164.68000031 367.12000031 367.11999938 367.11999938 66.01333313 0 130.74666656-17.71999969 187.2-51.24l26.49333375 44.62666688zM248.18666656 570.55999969c0 133.2 108.36 241.56 241.56 241.56s241.56-108.36 241.56-241.56c0-133.18666687-108.36-241.54666688-241.56-241.54666594s-241.56 108.34666687-241.56 241.54666594zM944.98666625 66.97333312h-111.09333281v111.08000063H782v-111.08000063h-111.07999969v-51.89333343h111.07999969V-96h51.89333344v111.07999969h111.09333281z"  horiz-adv-x="1024" />

    
    <glyph glyph-name="icon-test" unicode="&#58930;" d="M512 831.3C265.3 831.3 64.7 630.7 64.7 384c0-118.8 46.6-226.8 122.5-307 0.6-0.7 1-1.4 1.7-2 0.4-0.4 0.8-0.7 1.3-1 81.4-84.5 195.6-137.3 322-137.3 246.7 0 447.3 200.7 447.3 447.3S758.7 831.3 512 831.3z m0-55.9c94.3 0 180.9-33.5 248.5-89.2L209.8 135.5c-55.7 67.6-89.2 154.2-89.2 248.5 0 215.8 175.6 391.4 391.4 391.4z m0-782.8c-101.5 0-194 38.8-263.7 102.4L801 647.7C864.6 578 903.4 485.5 903.4 384c0-215.8-175.6-391.4-391.4-391.4z"  horiz-adv-x="1024" />

    
    <glyph glyph-name="dustbin_icon" unicode="&#58969;" d="M873.11 772.89h-169.47c-12.91 63.31-69.020 111.11-136.080 111.11h-111.12c-67.070 0-123.17-47.8-136.080-111.11h-169.47c-76.58 0-138.89-62.31-138.89-138.89-0-0.006-0-0.013-0-0.020 0-15.331 12.429-27.76 27.76-27.76 0.007 0 0.014 0 0.021 0l111.109-0v-611.11c0.063-61.339 49.771-111.047 111.104-111.11l500.006-0c61.339 0.063 111.047 49.771 111.11 111.104l0 611.116h111.11c0.006-0 0.013-0 0.020-0 15.331 0 27.76 12.429 27.76 27.76 0 0.007-0 0.014-0 0.021 0 76.579-62.31 138.889-138.89 138.889zM456.44 828.44h111.12c36.067-0.046 66.773-22.95 78.413-55l-268.113-0.56c11.832 32.625 42.54 55.52 78.6 55.56zM817.56-4.89c-0.045-30.665-24.895-55.51-55.556-55.55l-500.004-0c-30.669 0.040-55.52 24.891-55.56 55.556l-0 611.104h611.12zM873.12 661.78h-800.82c11.833 32.627 42.544 55.524 78.608 55.56l722.202-0c36.067-0.046 66.773-22.95 78.413-55zM512 50.67c0.006-0 0.013-0 0.020-0 15.331 0 27.76 12.429 27.76 27.76 0 0.007-0 0.014-0 0.021l0 388.879c0 15.342-12.438 27.78-27.78 27.78s-27.78-12.438-27.78-27.78l-0-388.89c-0-0.003-0-0.006-0-0.010 0-15.331 12.429-27.76 27.76-27.76 0.007 0 0.014 0 0.021 0zM345.33 50.67c0.006-0 0.013-0 0.020-0 15.331 0 27.76 12.429 27.76 27.76 0 0.007-0 0.014-0 0.021l0 388.879c0 15.342-12.438 27.78-27.78 27.78s-27.78-12.438-27.78-27.78l-0-388.89c-0-0.003-0-0.006-0-0.010 0-15.331 12.429-27.76 27.76-27.76 0.007 0 0.014 0 0.021 0zM678.67 50.67c0.006-0 0.013-0 0.020-0 15.331 0 27.76 12.429 27.76 27.76 0 0.007-0 0.014-0 0.021l0 388.879c-0 15.342-12.438 27.78-27.78 27.78s-27.78-12.438-27.78-27.78c0-0 0-0 0-0v-388.89c-0-0.003-0-0.006-0-0.010 0-15.331 12.429-27.76 27.76-27.76 0.007 0 0.014 0 0.021 0z"  horiz-adv-x="1024" />

    
    <glyph glyph-name="chilunshezhi" unicode="&#58883;" d="M942.00011844 484.12865344l-91.59751219 18.25963406a361.30129875 361.30129875 0 0 1-16.16426625 38.61463781l52.08485906 77.82795188a59.867655 59.867655 0 0 1-7.48345687 75.433245l-57.77228625 58.07162531a59.867655 59.867655 0 0 1-75.43324594 7.48345687l-77.82795188-52.08486a361.899975 361.899975 0 0 1-38.61463687 16.16426719l-18.259635 91.89685031a59.867655 59.867655 0 0 1-59.867655 48.1934625h-80.52199594a59.867655 59.867655 0 0 1-59.867655-48.1934625l-18.259635-91.89685031a361.899975 361.899975 0 0 1-38.61463781-16.16426719L276.87047094 759.81920438a59.867655 59.867655 0 0 1-75.433245-7.48345688L143.66493875 694.56346031a59.867655 59.867655 0 0 1-7.48345687-75.433245l52.08486-77.82795187a359.20593 359.20593 0 0 1-16.16426719-38.61463688l-91.89685031-18.259635a59.867655 59.867655 0 0 1-48.1934625-59.867655v-81.42001125a59.867655 59.867655 0 0 1 48.1934625-59.867655l91.89685031-18.259635a361.60063687 361.60063687 0 0 1 16.16426719-38.61463687l-52.08486-77.82795188a59.867655 59.867655 0 0 1 7.48345687-75.43324593l57.47294813-57.47294813a59.867655 59.867655 0 0 1 75.43324593-7.48345687l77.82795188 52.08486a355.61387063 355.61387063 0 0 1 38.61463687-16.16426719l18.259635-91.89685031a59.867655 59.867655 0 0 1 59.867655-48.1934625h81.42001125a59.867655 59.867655 0 0 1 59.867655 48.1934625l18.55897313 91.89685031a361.60063687 361.60063687 0 0 1 38.61463687 16.16426719l77.82795188-52.08486a59.867655 59.867655 0 0 1 75.433245 7.48345687l57.47294906 57.47294813a59.867655 59.867655 0 0 1 7.48345688 75.43324593l-52.08486 77.82795188a352.32115031 352.32115031 0 0 1 16.16426718 38.61463687l91.59751219 18.259635a59.867655 59.867655 0 0 1 48.1934625 59.867655v82.31802563a59.867655 59.867655 0 0 1-49.69015406 58.6703025zM838.42907562 324.88069031a59.867655 59.867655 0 0 1-44.90074124-38.91397593 305.02570219 305.02570219 0 0 0-12.87154594-31.43051813 59.867655 59.867655 0 0 1 3.8913975-59.867655l52.08486-77.82795187-57.47294906-57.47294907-77.82795188 52.08486a59.867655 59.867655 0 0 1-59.867655 4.19073563 301.73298188 301.73298188 0 0 0-32.32853344-13.47022219 59.867655 59.867655 0 0 1-38.91397593-44.90074125L551.96234563-34.32523968999999h-81.42001032L451.384685 57.57161062a59.867655 59.867655 0 0 1-38.913975 44.90074125 299.338275 299.338275 0 0 0-31.43051906 12.87154594 59.867655 59.867655 0 0 1-59.867655-4.19073562l-77.82795188-52.08486-57.17361093 58.07162531 52.08486 77.82795187a59.867655 59.867655 0 0 1 4.19073656 59.867655 301.13430469 301.13430469 0 0 0-13.47022313 32.32853344A59.867655 59.867655 0 0 1 184.07560531 324.88069031L92.178755 344.03834062v81.42001032L184.07560531 444.61600031a59.867655 59.867655 0 0 1 44.90074125 38.91397594A299.338275 299.338275 0 0 0 241.8478925 514.9604953099999a59.867655 59.867655 0 0 1-4.19073563 59.867655L186.17097312 652.3567640599999l57.47294907 57.47294906 77.82795187-52.08486a59.867655 59.867655 0 0 1 59.867655-4.19073656 299.338275 299.338275 0 0 0 32.02919531 13.47022313A59.867655 59.867655 0 0 1 451.384685 711.92508094L470.54233531 803.82193125h81.42001031L571.11999594 711.92508094a59.867655 59.867655 0 0 1 38.913975-44.90074125 299.338275 299.338275 0 0 0 31.43051906-12.87154594 59.867655 59.867655 0 0 1 59.867655 4.19073562l77.82795187 52.08486 57.47294907-57.47294906-52.08486-77.82795187a59.867655 59.867655 0 0 1-4.19073563-59.867655 301.13430469 301.13430469 0 0 0 13.47022219-32.32853344 59.867655 59.867655 0 0 1 44.90074125-38.91397594l91.59751219-18.259635v-81.42001031zM511.25234094 594.28513875a209.5367925 209.5367925 0 1 1 209.5367925-209.53679344 209.5367925 209.5367925 0 0 1-209.5367925 209.53679344z m0-393.03115594A183.4943625 183.4943625 0 1 0 694.74670344 384.74834531 183.4943625 183.4943625 0 0 0 511.25234094 201.25398281000002zM511.25234094 504.48365625a119.73531 119.73531 0 1 1 119.73531-119.73531094 119.73531 119.73531 0 0 1-119.73531 119.73531094z m0-209.53679344a89.8014825 89.8014825 0 1 0 89.8014825 89.8014825 89.8014825 89.8014825 0 0 0-89.8014825-89.8014825z"  horiz-adv-x="1025" />

    
    <glyph glyph-name="weimingmingwenjianjia_gongzuotai" unicode="&#58942;" d="M384 768h-170.666667c-46.933333 0-85.333333-38.4-85.333333-85.333333v-170.666667c0-46.933333 38.4-85.333333 85.333333-85.333333h256V682.666667c0 46.933333-38.4 85.333333-85.333333 85.333333z m42.666667-298.666667H213.333333c-23.466667 0-42.666667 19.2-42.666666 42.666667v170.666667c0 23.466667 19.2 42.666667 42.666666 42.666666h170.666667c23.466667 0 42.666667-19.2 42.666667-42.666666v-213.333334zM810.666667 768h-170.666667c-46.933333 0-85.333333-38.4-85.333333-85.333333v-256h256c46.933333 0 85.333333 38.4 85.333333 85.333333v170.666667c0 46.933333-38.4 85.333333-85.333333 85.333333z m42.666666-256c0-23.466667-19.2-42.666667-42.666666-42.666667H597.333333V682.666667c0 23.466667 19.2 42.666667 42.666667 42.666666h170.666667c23.466667 0 42.666667-19.2 42.666666-42.666666v-170.666667zM128 256v-170.666667c0-46.933333 38.4-85.333333 85.333333-85.333333h170.666667c46.933333 0 85.333333 38.4 85.333333 85.333333V341.333333H213.333333c-46.933333 0-85.333333-38.4-85.333333-85.333333z m298.666667-170.666667c0-23.466667-19.2-42.666667-42.666667-42.666666h-170.666667c-23.466667 0-42.666667 19.2-42.666666 42.666666v170.666667c0 23.466667 19.2 42.666667 42.666666 42.666667h213.333334v-213.333334zM810.666667 341.333333H554.666667v-256c0-46.933333 38.4-85.333333 85.333333-85.333333h170.666667c46.933333 0 85.333333 38.4 85.333333 85.333333v170.666667c0 46.933333-38.4 85.333333-85.333333 85.333333z m42.666666-256c0-23.466667-19.2-42.666667-42.666666-42.666666h-170.666667c-23.466667 0-42.666667 19.2-42.666667 42.666666V298.666667h213.333334c23.466667 0 42.666667-19.2 42.666666-42.666667v-170.666667z"  horiz-adv-x="1024" />

    
    <glyph glyph-name="ren-jianshao" unicode="&#59141;" d="M731.453 283.47799999999995c-27.877-14.516-52.222-34.88-71.41-59.466C616.142 248.22199999999998 565.68 262 512 262c-169.551 0-307-137.449-307-307 0-24.3-19.7-44-44-44s-44 19.7-44 44c0 162.692 98.359 302.412 238.856 362.938C279.408 368.606 229 455.416 229 554c0 156.297 126.703 283 283 283s283-126.703 283-283c0-98.584-50.408-185.394-126.856-236.062a394.134 394.134 0 0 0 63.31-34.46zM512 359c107.696 0 195 87.304 195 195s-87.304 195-195 195-195-87.304-195-195 87.304-195 195-195z m179.225-312.8c-24.3 0-44 19.699-44 44 0 24.3 19.7 44 44 44H963c24.3 0 44-19.7 44-44 0-24.301-19.7-44-44-44H691.225z"  horiz-adv-x="1024" />

    
    <glyph glyph-name="renshu" unicode="&#59150;" d="M657.76500939 772.62038914c75.47158124 0 136.83269531-59.93712197 136.8326953-133.59634964s-61.36111408-133.59634963-136.8326953-133.59634963S520.93231408 565.36481185 520.93231408 639.0240395000001s61.36111408 133.59634963 136.83269531 133.59634964m0 64.72691358c-111.33029136 0-201.55960889-88.80532543-201.55960889-198.32326322s90.22931753-198.3232632 201.55960889-198.3232632S859.32461827 529.50610173 859.32461827 639.0240395000001s-90.22931753 198.3232632-201.55960888 198.32326322zM401.96424691 639.15349333c0 31.45728 7.63777581 61.23166025 21.35988148 87.64024098-29.51547259 25.2434963-68.48107457 40.64850173-111.0713837 40.64850174-92.17112494 0-166.8659832-71.45851259-166.86598321-159.74602272s74.69485827-159.74602272 166.86598321-159.74602272c55.92405333 0 105.37541531 26.27912691 135.66761086 66.79817482-28.86820347 33.91690272-45.95610864 77.15448098-45.95610864 124.4051279zM234.32154075 105.41536395000003v-21.87769678c0 133.98471111 93.85402469 248.2924405 224.86129777 292.82455702-37.80051753 17.21735902-80.39082667 27.05584987-125.44075852 27.05584989h-36.89434075c-153.53223902 0-279.10245136-112.88373728-279.10245135-252.04660149v17.6057205c0-72.88250469-5.82542222-132.43126518 74.56540445-132.43126519H234.96880987c-1.16508445 20.97152-0.64726914 44.27320889-0.64726912 68.86943605zM676.92417581 320.56762469c36.11761778 0 71.32905876-6.73159902 104.33978469-19.93588938 31.71618765-12.68647506 60.32548347-30.93946469 84.79225678-53.98224592 49.58081581-46.86228543 76.89557333-108.61176098 76.89557333-174.11539754h0.25890766c0.12945383-6.60214518 0.38836148-12.94538272 0.51781531-19.28862024 0.51781531-16.82899753 1.03563061-32.62236445 0.38836148-45.17938569-0.38836148-5.82542222-0.9061768-9.96794469-1.42399209-12.68647506-2.45962272-0.38836148-6.2137837-0.64726914-11.26248297-0.64726913H390.83121778c-10.48576 0-15.66391309 1.4239921-17.73517431 2.07126124-0.9061768 2.07126124-2.97743803 7.63777581-4.40143014 20.19479703-1.68289975 15.27555161-1.68289975 34.69362569-1.55344592 55.40623803h0.12945383c0 65.50363653 27.31475753 127.2531121 76.89557333 174.11539752 24.46677333 23.17223506 52.94661531 41.29577086 84.79225679 53.98224593 33.01072592 13.20429037 68.09271309 19.93588939 104.33978469 19.93588938h43.62593976m0 64.85636741h-43.75539359c-181.88262717 0-330.75452839-140.19849482-330.75452839-312.76044642v21.87769679c0-90.35877136-6.86105283-164.4063605 88.28751012-164.40636049H931.4304c95.2780168 0 76.24830419 73.91813531 76.24830419 164.40636049v-21.87769679c0 172.69140543-148.87190124 312.76044642-330.75452838 312.76044642zM865.53840197 132.34176000000002c0-13.20429037-10.87412148-23.94895803-24.20786567-23.94895803h-49.06300049v-47.12119308c0-13.20429037-10.87412148-23.94895803-24.20786568-23.94895803h-12.16865976c-13.33374419 0-24.20786569 10.74466765-24.20786568 23.94895803v47.12119308h-51.52262321c-13.33374419 0-24.20786569 10.74466765-24.20786567 23.94895803v11.9097521c0 13.20429037 10.87412148 23.94895803 24.20786567 23.94895803h51.52262321v52.04043851c0 13.20429037 10.87412148 23.94895803 24.20786568 23.94895803h12.16865976c13.33374419 0 24.20786569-10.74466765 24.20786568-23.94895803v-52.04043851h49.06300049c13.33374419 0 24.20786569-10.74466765 24.20786567-23.94895803v-11.9097521z"  horiz-adv-x="1024" />

    
    <glyph glyph-name="jia" unicode="&#58944;" d="M874.23 746.23a512 512 0 1 1 0-724.46 512.884 512.884 0 0 1 0 724.46zM832.83 63.172a453.507 453.507 0 1 0 0 641.658 454.317 454.317 0 0 0 0-641.658zM758.791 413.468H541.468V630.79a29.468 29.468 0 0 1-58.936 0v-217.323H265.21a29.468 29.468 0 0 1 0-58.936h217.323V137.21a29.468 29.468 0 0 1 58.936 0V354.532H758.79a29.468 29.468 0 0 1 0 58.936z"  horiz-adv-x="1024" />

    
    <glyph glyph-name="xiangmu" unicode="&#59037;" d="M856.875 247.467l51.285-30.763a21.333 21.333 0 0 0 0-36.608L533.973-44.416a42.667 42.667 0 0 0-43.946 0L115.84 180.096a21.333 21.333 0 0 0 0 36.608l51.285 30.763L512 40.533l344.875 206.934z m0 200.533l51.285-30.763a21.333 21.333 0 0 0 0-36.608L512 142.933 115.84 380.63a21.333 21.333 0 0 0 0 36.608L167.125 448 512 241.067 856.875 448zM533.93 840.15L908.16 615.636a21.333 21.333 0 0 0 0-36.608L512 341.333 115.84 579.03a21.333 21.333 0 0 0 0 36.608L490.027 840.15a42.667 42.667 0 0 0 43.946 0h-0.042zM512 753.834L251.179 597.333 512 440.832l260.821 156.501L512 753.835z"  horiz-adv-x="1024" />

    
    <glyph glyph-name="duoren" unicode="&#59081;" d="M631.23911111 398.19946667c50.44906667 36.87537778 83.41048889 96.31288889 83.41048889 163.44177778 0 111.67288889-90.86293333 202.53582222-202.5472 202.53582222s-202.5472-90.85155555-202.5472-202.53582222c0-67.12888889 32.9728-126.57777778 83.42186667-163.45315556-130.6624-48.58311111-224.16497778-174.17102222-224.16497778-321.52462222v-73.12497778h686.55786666v73.12497778c0.02275555 147.36497778-93.47982222 272.96426667-224.13084444 321.536zM512.11377778 695.12533333c73.61422222 0 133.49546667-59.88124445 133.49546667-133.48408888 0-73.61422222-59.88124445-133.49546667-133.49546667-133.49546667s-133.49546667 59.88124445-133.49546667 133.49546667c0 73.60284445 59.88124445 133.48408889 133.49546667 133.48408888zM786.35235555 72.59022221999999H237.8752v4.08462223c0 151.21066667 123.03928889 274.23857778 274.27271111 274.23857777 151.19928889 0 274.20444445-123.02791111 274.20444444-274.23857777v-4.08462223zM326.13262222 394.88853333c0 1.18328889-0.22755555 2.29831111-0.34133333 3.44746667 0.1024 1.08088889 0.32995555 2.11626667 0.32995556 3.21991111 0 19.06915555-15.45102222 34.52017778-34.52017778 34.52017778-56.36551111 0-102.21795555 45.85244445-102.21795556 102.21795556 0 56.35413333 45.85244445 102.20657778 102.21795556 102.20657777 19.06915555 0 34.52017778 15.45102222 34.52017778 34.52017778s-15.45102222 34.52017778-34.52017778 34.52017778c-94.42417778 0-171.25831111-76.82275555-171.25831112-171.24693333 0-52.51982222 23.81368889-99.55555555 61.16693334-130.99235556C78.41564445 364.08888889 5.80266667 262.20088889 5.80266667 143.63306666999995v-31.41404445c0-19.06915555 15.45102222-34.52017778 34.52017778-34.52017777s34.52017778 15.45102222 34.52017777 34.52017777v31.41404445c0 119.51217778 97.23448889 216.73528889 216.76942223 216.73528888 19.06915555 0 34.52017778 15.45102222 34.52017777 34.52017778zM842.72924445 407.29031111c37.35324445 31.4368 61.16693333 78.47253333 61.16693333 130.99235556 0 94.42417778-76.83413333 171.24693333-171.25831111 171.24693333-19.06915555 0-34.52017778-15.45102222-34.52017778-34.52017778s15.45102222-34.52017778 34.52017778-34.52017777c56.36551111 0 102.21795555-45.85244445 102.21795555-102.20657778 0-56.36551111-45.85244445-102.21795555-102.21795555-102.21795556-19.06915555 0-34.52017778-15.45102222-34.52017778-34.52017778 0-1.10364445 0.22755555-2.1504 0.32995556-3.21991111-0.11377778-1.14915555-0.34133333-2.26417778-0.34133334-3.44746667 0-19.06915555 15.45102222-34.52017778 34.52017778-34.52017777 119.53493333 0 216.76942222-97.22311111 216.76942222-216.73528889v-31.41404444c0-19.06915555 15.45102222-34.52017778 34.52017778-34.52017778 19.06915555 0 34.52017778 15.45102222 34.52017778 34.52017778v31.41404444c-0.01137778 118.5792-72.63573333 220.4672-175.70702222 263.66862222z"  horiz-adv-x="1024" />

    
    <glyph glyph-name="heimingdan" unicode="&#58935;" d="M760.76 342.72a216 216 0 1 1 0-432 216 216 0 0 1 0 432z m-161.04-216a161.04 161.04 0 0 0 161.04 161.04 159.6 159.6 0 0 0 97.8-33.84l-233.58-213a159.78 159.78 0 0 0-25.2 85.8z m161.04-161.04a159.6 159.6 0 0 0-97.8 33.9l233.64 213c15.78-24.96 25.2-54.24 25.2-85.86a161.04 161.04 0 0 0-161.04-161.04zM582.44 306c2.58-0.72 5.16-1.56 8.04-1.56a28.62 28.62 0 1 1 14.1 53.82l0.36 0.78c-1.02 0.36-2.04 0.6-3 1.02l-0.54 0.12a404.52 404.52 0 0 1-21.12 7.14c80.4 45.78 135.24 131.28 135.24 230.46a266.22 266.22 0 0 1-532.38 0c0-102.3 58.32-190.08 142.98-234.66a404.04 404.04 0 0 1-270-367.26H56.6c-0.06-0.78-0.42-1.38-0.42-2.16 0-15.96 12.96-28.98 28.98-28.98 19.98 0 34.98 12.96 34.98 28.98 0 0.78-0.36 1.38-0.42 2.16h0.6c7.38 184.62 153 326.16 339.42 326.16 43.2 0 84.42-1.92 122.52-16.38l0.18 0.42zM449.36 390.78a207 207 0 1 0 0 414.12 207 207 0 0 0 0-414.12z"  horiz-adv-x="1024" />

    


  </font>
</defs>
</svg>
